<svg width="29" height="29" viewBox="0 0 29 29" fill="none" xmlns="http://www.w3.org/2000/svg">
<path d="M14.5 2.41667C14.3402 2.41669 14.182 2.4484 14.0346 2.50998C13.8871 2.57155 13.7533 2.66177 13.641 2.77539L1.45382 13.4097C1.3777 13.4658 1.31584 13.5391 1.27321 13.6235C1.23058 13.708 1.20837 13.8012 1.20837 13.8958C1.20837 14.0561 1.27203 14.2097 1.38533 14.323C1.49863 14.4363 1.65231 14.5 1.81254 14.5H4.83337V24.1667C4.83337 24.8337 5.37471 25.375 6.04171 25.375H10.875C11.542 25.375 12.0834 24.8337 12.0834 24.1667V16.9167H16.9167V24.1667C16.9167 24.8337 17.458 25.375 18.125 25.375H22.9584C23.6254 25.375 24.1667 24.8337 24.1667 24.1667V14.5H27.1875C27.3478 14.5 27.5014 14.4363 27.6148 14.323C27.7281 14.2097 27.7917 14.0561 27.7917 13.8958C27.7917 13.8012 27.7695 13.708 27.7269 13.6235C27.6842 13.5391 27.6224 13.4658 27.5463 13.4097L15.3662 2.78247C15.3638 2.7801 15.3615 2.77774 15.3591 2.77539C15.2467 2.66177 15.113 2.57155 14.9655 2.50998C14.818 2.4484 14.6598 2.41669 14.5 2.41667Z" fill="#A855F7"/>
</svg>
