<svg width="29" height="29" viewBox="0 0 29 29" fill="none" xmlns="http://www.w3.org/2000/svg">
<g clip-path="url(#clip0_6_6)">
<path d="M28.2884 1.73455H7.47251C7.07965 1.73455 6.76091 2.05328 6.76091 2.44615V4.4033V9.0292V17.2028C6.25651 17.0383 5.71926 16.9463 5.15953 16.9463C2.31 16.9463 0 19.2563 0 22.1059C0 24.9554 2.31 27.2654 5.15959 27.2654C8.00917 27.2654 10.3192 24.9554 10.3192 22.1059C10.3192 22.0841 10.3163 22.0629 10.3159 22.0411C10.3163 22.033 10.3192 22.0252 10.3192 22.0167V9.74074H25.4418V17.2028C24.9374 17.0383 24.4001 16.9463 23.8404 16.9463C20.9909 16.9463 18.6808 19.2563 18.6808 22.1059C18.6808 24.9554 20.9909 27.2654 23.8404 27.2654C26.6899 27.2654 29 24.9554 29 22.1059C29 22.0841 28.9971 22.0629 28.9968 22.0411C28.9971 22.033 29 22.0252 29 22.0167V9.0292V4.4033V2.44615C29.0003 2.05328 28.6815 1.73455 28.2884 1.73455Z" fill="#A855F7"/>
</g>
<defs>
<clipPath id="clip0_6_6">
<rect width="29" height="29" fill="white"/>
</clipPath>
</defs>
</svg>
