<svg width="31" height="31" viewBox="0 0 31 31" fill="none" xmlns="http://www.w3.org/2000/svg">
<g clip-path="url(#clip0_6_10)">
<path fill-rule="evenodd" clip-rule="evenodd" d="M15.5 18.6C21.3667 18.6 26.2849 22.0317 27.5652 27.9H3.43481C4.71511 22.0317 9.63325 18.6 15.5 18.6ZM9.3 9.3C9.3 5.8807 12.0807 3.1 15.5 3.1C18.9193 3.1 21.7 5.8807 21.7 9.3C21.7 12.7193 18.9193 15.5 15.5 15.5C12.0807 15.5 9.3 12.7193 9.3 9.3ZM21.3249 16.5431C23.4422 14.8397 24.8 12.2295 24.8 9.3C24.8 4.1633 20.6367 0 15.5 0C10.3633 0 6.2 4.1633 6.2 9.3C6.2 12.2295 7.55781 14.8397 9.67511 16.5431C4.00366 18.6744 0 23.9397 0 31H31C31 23.9397 26.9963 18.6744 21.3249 16.5431Z" fill="white"/>
</g>
<defs>
<clipPath id="clip0_6_10">
<rect width="31" height="31" fill="white"/>
</clipPath>
</defs>
</svg>
