<svg width="35" height="35" viewBox="0 0 35 35" fill="none" xmlns="http://www.w3.org/2000/svg">
<path d="M14.7 2.1C8.12108 2.1 2.79999 7.42109 2.79999 14C2.79999 20.5789 8.12108 25.9 14.7 25.9C17.0488 25.9 19.2226 25.2109 21.0656 24.0406L29.6625 32.6375L32.6375 29.6625L24.15 21.1969C25.6758 19.1953 26.6 16.7152 26.6 14C26.6 7.42109 21.2789 2.1 14.7 2.1ZM14.7 4.9C19.7394 4.9 23.8 8.96055 23.8 14C23.8 19.0395 19.7394 23.1 14.7 23.1C9.66053 23.1 5.59999 19.0395 5.59999 14C5.59999 8.96055 9.66053 4.9 14.7 4.9Z" fill="white"/>
</svg>
