<svg width="100" height="100" viewBox="0 0 100 100" fill="none" xmlns="http://www.w3.org/2000/svg">
<g clip-path="url(#clip0_11_3)">
<path d="M63.2649 57.0739C63.2649 64.4045 57.3306 70.3388 50 70.3388C42.6694 70.3388 36.7351 64.4045 36.7351 57.0739C36.7351 49.7433 42.6694 43.809 50 43.809C57.3306 43.809 63.2649 49.7433 63.2649 57.0739ZM90.4107 23.8296C95.7084 23.8296 100 28.1211 100 33.4189V58.5524V79.8665C100 85.5133 95.4209 90.0924 89.7741 90.0924H10.2259C4.57906 90.0924 0 85.5133 0 79.8665V58.5318V33.4189C0 28.1211 4.29158 23.8296 9.58932 23.8296H28.768L29.6715 20.0103C31.0472 14.0965 36.3244 9.90759 42.4025 9.90759H57.6181C63.6961 9.90759 68.9733 14.0965 70.3491 20.0103L71.232 23.8296H90.4107ZM20 37.6694C20 35.0205 17.8439 32.8645 15.1951 32.8645C12.5257 32.8645 10.3696 35.0205 10.3696 37.6694C10.3696 40.3183 12.5257 42.4743 15.1745 42.4743C17.8439 42.4949 20 40.3388 20 37.6694ZM73.655 57.0739C73.655 44.0144 63.0595 33.4189 50 33.4189C36.9405 33.4189 26.345 44.0144 26.345 57.0739C26.345 70.1335 36.9405 80.7289 50 80.7289C63.0595 80.7289 73.655 70.1335 73.655 57.0739Z" fill="#FFFDFD" fill-opacity="0.31"/>
</g>
<defs>
<clipPath id="clip0_11_3">
<rect width="100" height="100" fill="white"/>
</clipPath>
</defs>
</svg>
